<svg xmlns="http://www.w3.org/2000/svg" xmlns:xlink="http://www.w3.org/1999/xlink" viewBox="0,0,256,256" width="150px" height="150px"><g fill="#7d7d7d" fill-rule="nonzero" stroke="none" stroke-width="1" stroke-linecap="butt" stroke-linejoin="miter" stroke-miterlimit="10" stroke-dasharray="" stroke-dashoffset="0" font-family="none" font-weight="none" font-size="none" text-anchor="none" style="mix-blend-mode: normal"><g transform="scale(5.12,5.12)"><path d="M29.5,9c-5.14453,0 -9.52734,2.94922 -11.80469,7.19141c-1.08594,-0.69141 -2.3125,-1.19141 -3.69531,-1.19141c-3.85547,0 -7,3.14453 -7,7c0,0.3125 0.07422,0.59766 0.11328,0.89453c-3.56641,1.53125 -6.11328,4.98828 -6.11328,9.10547c0,5.39844 4.30859,9.80469 9.66016,9.98438h0.00391c-0.04687,0 0.02734,0.01563 0.22266,0.01563h28.75c0.1875,0 0.53125,0.04688 1.00391,-0.14062c0.00391,-0.00391 0.05469,-0.01172 0.04688,-0.01172c4.71484,-0.80469 8.3125,-4.91016 8.3125,-9.84766c0,-4.08203 -2.50391,-7.51953 -6.01953,-9.06641c0.00391,-0.14844 0.01953,-0.28125 0.01953,-0.43359c0,-7.44531 -6.05469,-13.5 -13.5,-13.5zM29.5,11c6.36328,0 11.5,5.13672 11.5,11.5c0,0.29297 -0.01953,0.59766 -0.04687,0.92188l-0.0625,0.77344l0.73047,0.25391c3.12891,1.08594 5.37891,4.04297 5.37891,7.55078c0,3.96875 -2.875,7.23438 -6.65234,7.875c-0.15625,0.02734 -0.1875,0.03906 -0.12891,0.03125l-0.15625,0.02344l-0.14062,0.07031c0.14844,-0.07422 -0.07422,0 -0.28516,0h-28.75c0.05859,0 0.01172,-0.00781 -0.15625,-0.01562h-0.00781c-4.29688,-0.14453 -7.72266,-3.64844 -7.72266,-7.98437c0,-3.55469 2.30859,-6.54297 5.5,-7.59375l0.87891,-0.29297l-0.22266,-0.89844c-0.09766,-0.39844 -0.15625,-0.80469 -0.15625,-1.21484c0,-2.77344 2.22656,-5 5,-5c1.29297,0 2.46094,0.49219 3.34766,1.29688l1.03906,0.9375l0.55078,-1.28125c1.76172,-4.08594 5.82031,-6.95312 10.5625,-6.95312zM33,19c-0.55078,0 -1,0.44922 -1,1v16c0,0.55078 0.44922,1 1,1h2c0.55078,0 1,-0.44922 1,-1v-16c0,-0.55078 -0.44922,-1 -1,-1zM27,22c-0.55078,0 -1,0.44922 -1,1v13c0,0.55078 0.44922,1 1,1h2c0.55078,0 1,-0.44922 1,-1v-13c0,-0.55078 -0.44922,-1 -1,-1zM21,25c-0.55078,0 -1,0.44922 -1,1v10c0,0.55078 0.44922,1 1,1h2c0.55078,0 1,-0.44922 1,-1v-10c0,-0.55078 -0.44922,-1 -1,-1zM15,28c-0.55078,0 -1,0.44922 -1,1v7c0,0.55078 0.44922,1 1,1h2c0.55078,0 1,-0.44922 1,-1v-7c0,-0.55078 -0.44922,-1 -1,-1z"></path></g></g></svg>